<svg width="11" height="16" viewBox="0 0 11 16" fill="none" xmlns="http://www.w3.org/2000/svg">
<g clip-path="url(#clip0_11_121)">
<path d="M2.75055 16C4.26824 16 5.5 14.8053 5.5 13.3333V10.6667H2.75055C1.23285 10.6667 0.00109863 11.8613 0.00109863 13.3333C0.00109863 14.8053 1.23285 16 2.75055 16Z" fill="#0ACF83"/>
<path d="M0.00109863 8C0.00109863 6.528 1.23285 5.33333 2.75055 5.33333H5.5V10.6667H2.75055C1.23285 10.6667 0.00109863 9.472 0.00109863 8Z" fill="#A259FF"/>
<path d="M0.00146484 2.66667C0.00146484 1.19467 1.23322 0 2.75091 0H5.50036V5.33333H2.75091C1.23322 5.33333 0.00146484 4.13867 0.00146484 2.66667Z" fill="#F24E1E"/>
<path d="M5.5 0H8.24945C9.76715 0 10.9989 1.19467 10.9989 2.66667C10.9989 4.13867 9.76715 5.33333 8.24945 5.33333H5.5V0Z" fill="#FF7262"/>
<path d="M10.9989 8C10.9989 9.472 9.76715 10.6667 8.24945 10.6667C6.73175 10.6667 5.5 9.472 5.5 8C5.5 6.528 6.73175 5.33333 8.24945 5.33333C9.76715 5.33333 10.9989 6.528 10.9989 8Z" fill="#1ABCFE"/>
</g>
<defs>
<clipPath id="clip0_11_121">
<rect width="11" height="16" fill="white"/>
</clipPath>
</defs>
</svg>
