<svg width="17" height="17" viewBox="0 0 17 17" fill="none" xmlns="http://www.w3.org/2000/svg">
<path fill-rule="evenodd" clip-rule="evenodd" d="M6.28951 0.330103C3.76379 0.525328 1.61631 0.69615 1.5187 0.708351C1.23806 0.769359 0.98183 0.952383 0.859814 1.20862L0.75 1.42824L0.762202 6.72373L0.774403 12.0192L0.933024 12.3486C1.03064 12.5317 1.64071 13.3858 2.3118 14.2521C3.64177 15.9847 3.73938 16.0701 4.23965 16.1311C4.38607 16.1433 5.49641 16.0945 6.67996 16.0213C7.87572 15.9481 9.80357 15.8261 10.9505 15.7651C15.8677 15.46 15.6115 15.4845 15.9044 15.2404C16.2582 14.9476 16.2216 15.4356 16.246 8.99322C16.2582 3.53912 16.246 3.17307 16.1606 3.01445C16.0752 2.81922 15.9044 2.69721 13.6593 1.1232C12.1585 0.0616683 12.0487 0.0128621 11.3776 0.000660483C11.0969 -0.0115411 8.80304 0.147079 6.28951 0.330103Z" fill="white"/>
<path fill-rule="evenodd" clip-rule="evenodd" d="M6.28951 0.330103C3.76379 0.525328 1.61631 0.69615 1.5187 0.708351C1.23806 0.769359 0.98183 0.952383 0.859814 1.20862L0.75 1.42824L0.762202 6.72373L0.774403 12.0192L0.933024 12.3486C1.03064 12.5317 1.64071 13.3858 2.3118 14.2521C3.64177 15.9847 3.73938 16.0701 4.23965 16.1311C4.38607 16.1433 5.49641 16.0945 6.67996 16.0213C7.87572 15.9481 9.80357 15.8261 10.9505 15.7651C15.8677 15.46 15.6115 15.4845 15.9044 15.2404C16.2582 14.9476 16.2216 15.4356 16.246 8.99322C16.2582 3.53912 16.246 3.17307 16.1606 3.01445C16.0752 2.81922 15.9044 2.69721 13.6593 1.1232C12.1585 0.0616683 12.0487 0.0128621 11.3776 0.000660483C11.0969 -0.0115411 8.80304 0.147079 6.28951 0.330103ZM11.9632 1.02559C12.1829 1.1232 13.7325 2.19694 13.9521 2.40437C14.0131 2.46538 14.0375 2.52639 14.0009 2.55079C13.9399 2.6118 4.33726 3.18527 4.05663 3.13646C3.93461 3.12426 3.75159 3.05105 3.64177 2.97784C3.20252 2.6728 2.11658 1.78209 2.11658 1.72108C2.11658 1.55026 2.07997 1.55026 6.35052 1.23302C7.16803 1.18421 8.5224 1.0866 9.3399 1.01339C11.1091 0.879173 11.6338 0.879173 11.9632 1.02559ZM15.0136 3.78315C15.0868 3.85636 15.1479 3.99057 15.1723 4.12479C15.1845 4.24681 15.1967 6.5163 15.1845 9.15184C15.1723 13.6664 15.1601 13.9593 15.0746 14.0813C15.0258 14.1667 14.9282 14.2521 14.8428 14.2765C14.6354 14.3619 4.58129 14.9354 4.37387 14.8744C4.27625 14.85 4.14204 14.7646 4.08103 14.6913L3.95901 14.5693L3.94681 9.68871C3.93461 6.26007 3.94681 4.74707 3.98342 4.61285C4.00782 4.51524 4.09323 4.39323 4.15424 4.34442C4.23965 4.28341 4.83753 4.2346 6.88739 4.11259C8.32718 4.03938 10.5601 3.90516 11.829 3.81975C14.8794 3.63673 14.8672 3.63673 15.0136 3.78315Z" fill="black"/>
<path fill-rule="evenodd" clip-rule="evenodd" d="M12.317 5.45476C11.7679 5.49137 11.2798 5.54017 11.231 5.57678C11.0602 5.66219 10.9626 5.80861 10.9382 5.96723C10.926 6.12585 10.9748 6.15025 11.5239 6.22346L11.7557 6.24786V8.40754C11.7557 9.68871 11.7435 10.5306 11.7069 10.5062C11.6825 10.4818 10.9748 9.38367 10.1207 8.0903C9.26657 6.77253 8.55888 5.69879 8.54667 5.69879C8.53447 5.68659 7.9854 5.71099 7.31432 5.7598C6.49681 5.80861 6.04535 5.86961 5.95994 5.91842C5.81352 5.99163 5.6427 6.26006 5.6427 6.43089C5.6427 6.5407 5.83793 6.60171 6.24058 6.60171H6.46021V12.8001L6.10636 12.9099C5.85013 12.9831 5.75251 13.0319 5.70371 13.1418C5.6305 13.3126 5.6305 13.459 5.71591 13.459C5.74031 13.459 6.31379 13.4346 6.97267 13.3858C8.26604 13.3126 8.41246 13.276 8.54667 13.0075C8.59548 12.9343 8.63208 12.8489 8.63208 12.8123C8.63208 12.8001 8.44906 12.7391 8.24163 12.6903C8.02201 12.6415 7.80238 12.5805 7.75357 12.5805C7.66816 12.5561 7.66816 12.3975 7.66816 10.2256V7.89508L9.20556 10.2988C10.8162 12.8245 11.0114 13.1173 11.2676 13.2394C11.5727 13.398 12.3536 13.2882 12.744 13.0319L12.866 12.9587L12.8782 9.51788L12.8904 6.06484L13.1589 6.01603C13.4761 5.95503 13.6225 5.80861 13.6225 5.55237C13.6225 5.39375 13.6103 5.38155 13.4639 5.39375C13.3785 5.39375 12.8538 5.43036 12.317 5.45476Z" fill="black"/>
</svg>
